<svg xmlns="http://www.w3.org/2000/svg" width="69" height="25" viewBox="0 0 69 25" fill="none">
  <defs>
    <linearGradient id="face" x1="34.5" y1="3" x2="34.5" y2="22" gradientUnits="userSpaceOnUse">
      <stop offset="0" stop-color="#061a28"/>
      <stop offset="0.45" stop-color="#04121c"/>
      <stop offset="1" stop-color="#020910"/>
    </linearGradient>
    <linearGradient id="rim" x1="34.5" y1="0" x2="34.5" y2="25" gradientUnits="userSpaceOnUse">
      <stop offset="0" stop-color="#2a6a88"/>
      <stop offset="0.5" stop-color="#0c3044"/>
      <stop offset="1" stop-color="#061820"/>
    </linearGradient>
    <linearGradient id="glow" x1="34.5" y1="2" x2="34.5" y2="23" gradientUnits="userSpaceOnUse">
      <stop offset="0" stop-color="#5ef6ff"/>
      <stop offset="0.35" stop-color="#00d8f0"/>
      <stop offset="1" stop-color="#0078a8"/>
    </linearGradient>
  </defs>
  <path fill="url(#rim)" d="M8 0H61L69 8V17L61 25H8L0 17V8L8 0Z"/>
  <path fill="url(#glow)" d="M8.5 1.5H60.5L67.5 8.5V16.5L60.5 23.5H8.5L1.5 16.5V8.5L8.5 1.5Z"/>
  <path fill="url(#face)" d="M9.5 3.5H59.5L65.5 9.5V15.5L59.5 21.5H9.5L3.5 15.5V9.5L9.5 3.5Z"/>
  <path stroke="#7af8ff" stroke-opacity="0.55" stroke-width="1" d="M10 4.5H59"/>
  <path stroke="#00384c" stroke-opacity="0.9" stroke-width="1" d="M10 20.5H59"/>
</svg>
